<svg version="1.1" id="Layer_1" xmlns="http://www.w3.org/2000/svg" xmlns:xlink="http://www.w3.org/1999/xlink" x="0px" y="0px"
	 width="100%" viewBox="0 0 1024 1024" enable-background="new 0 0 1024 1024" xml:space="preserve">
<path fill="#000000" opacity="1.000000" stroke="none" 
	d="
M610.633545,452.961243 
	C614.373291,452.584076 617.738647,452.145142 620.798828,453.964966 
	C622.466736,454.956879 623.731201,456.376129 622.982483,458.486694 
	C622.345703,460.281830 620.804810,460.858826 618.958984,460.730713 
	C603.695801,459.671234 596.312073,473.394165 597.688049,485.241394 
	C598.510010,492.318207 598.020935,499.546661 598.134644,506.706757 
	C598.165833,508.672638 597.745056,510.686218 598.541077,512.523071 
	C600.347168,513.312439 601.588867,512.185791 602.863708,511.547974 
	C614.783813,505.584625 626.643372,499.499146 638.600403,493.611481 
	C641.672363,492.098846 642.923157,490.128143 642.938049,486.628082 
	C643.052063,459.802307 643.297913,432.976654 643.650879,406.152924 
	C643.700439,402.381989 642.666931,399.535645 639.963135,396.838562 
	C598.551025,355.529816 557.216980,314.142822 515.858032,272.780792 
	C515.050049,271.972778 514.370850,270.949615 512.979858,270.788818 
	C511.282166,271.121490 510.341217,272.601685 509.190887,273.751495 
	C468.880310,314.043701 428.626495,354.392914 388.215057,394.583649 
	C384.614349,398.164703 383.172089,401.753479 383.145325,406.822601 
	C382.995819,435.146088 382.856720,463.479675 381.948975,491.785309 
	C381.398529,508.947571 381.559845,526.099976 381.242798,543.254211 
	C381.233551,543.754089 381.246704,544.255005 381.219269,544.753784 
	C381.019684,548.377563 380.777802,552.328369 375.867920,552.122070 
	C371.100220,551.921875 370.839874,548.053650 370.896271,544.383911 
	C371.605408,498.238770 372.504822,452.095215 372.862640,405.947479 
	C372.919281,398.643982 375.160675,393.647827 380.253784,388.589325 
	C421.632996,347.491699 462.756073,306.136139 503.952728,264.854736 
	C511.624390,257.167328 514.480164,257.102631 522.058716,264.702759 
	C553.118225,295.850403 584.152588,327.022949 615.205994,358.176636 
	C626.382202,369.388977 637.489502,380.673096 648.837585,391.709167 
	C652.105347,394.887085 653.407654,398.273071 653.381287,402.753204 
	C653.207581,432.250183 653.218872,461.748230 653.143433,491.245850 
	C653.124634,498.591614 652.605225,499.031769 645.135559,499.716858 
	C643.870972,499.832825 642.617065,500.526794 641.445740,501.125061 
	C628.539185,507.717010 615.686279,514.415039 602.737610,520.922729 
	C597.809082,523.399719 594.872375,527.020142 593.175964,532.360474 
	C590.011902,542.321167 585.374878,551.564087 576.168457,557.490356 
	C572.561768,559.812012 568.539978,560.402588 565.000000,557.406433 
	C561.607483,554.534973 560.130188,550.884766 561.434509,546.240906 
	C562.270752,543.263489 563.574829,540.632324 565.488342,538.309326 
	C570.176636,532.617798 575.367432,527.414185 581.881531,523.834290 
	C586.155884,521.485291 588.835510,518.270752 589.335632,513.355652 
	C590.043640,506.397980 590.208374,499.442444 589.660950,492.178741 
	C585.605103,492.504272 583.136536,495.219696 580.213013,496.883270 
	C574.725830,500.005646 569.644775,503.788513 563.525818,505.820709 
	C554.559387,508.798615 547.651489,505.891754 544.071106,497.245087 
	C541.228577,490.380371 541.054199,490.298706 534.908508,494.623016 
	C530.552124,497.688293 526.403870,501.065704 521.928040,503.938232 
	C519.494080,505.500305 516.646362,507.261475 513.558899,505.249084 
	C510.515564,503.265411 510.217560,500.046265 510.280548,496.810028 
	C510.401154,490.612244 512.088440,484.646698 513.124268,478.585632 
	C513.400269,476.970428 514.214905,475.398193 513.093567,473.783875 
	C510.992676,472.825378 510.106171,474.632904 508.941406,475.660461 
	C496.573090,486.571686 487.964874,500.602844 477.780334,513.325378 
	C476.214355,515.281677 474.746063,517.293457 472.751740,518.845703 
	C470.629578,520.497437 468.371368,521.323486 465.848175,519.775208 
	C463.423615,518.287354 463.493256,515.891907 463.891693,513.541870 
	C465.342987,504.982239 467.697418,496.668060 470.958344,488.619080 
	C473.119293,483.285309 475.327820,477.970764 477.967468,471.546509 
	C470.933105,473.839142 464.907959,475.602905 459.029114,477.764526 
	C449.637634,481.217743 440.198242,484.453156 430.280914,486.019928 
	C426.403687,486.632446 424.879303,488.165894 425.957581,492.455444 
	C432.381500,518.010803 428.973541,542.999390 421.136139,567.676270 
	C419.398010,573.148804 416.778503,578.137939 412.870941,582.369080 
	C407.236176,588.470520 401.334167,587.420349 398.322693,579.709106 
	C394.596710,570.168213 395.616241,560.287537 397.274902,550.626404 
	C404.176331,510.428101 420.111450,473.544983 439.228516,437.851318 
	C449.393951,418.871338 460.368896,400.420227 473.723236,383.480347 
	C478.054199,377.986511 482.586578,372.635773 488.089935,368.243561 
	C489.633698,367.011475 491.331543,365.853943 493.142120,365.106445 
	C495.126953,364.287018 497.374237,363.766846 499.231842,365.588196 
	C501.054138,367.374939 501.499329,369.453705 500.783722,371.987244 
	C498.729279,379.260254 495.532166,386.013428 491.761963,392.515106 
	C479.344574,413.928345 464.226196,433.385315 448.389984,452.322083 
	C443.261963,458.454193 438.162994,464.610962 433.096924,470.794312 
	C431.851074,472.314941 430.556000,473.868988 430.302094,476.111969 
	C432.730865,478.109650 435.243073,476.819611 437.402527,476.137695 
	C452.007294,471.525909 466.535675,466.672729 481.119446,461.993347 
	C483.718750,461.159302 484.591614,459.002686 485.641479,456.979675 
	C489.404266,449.729004 493.086151,442.420135 498.003357,435.869720 
	C499.875122,433.376251 501.902039,429.041077 505.695618,431.548309 
	C509.616180,434.139496 506.287140,437.526428 504.563538,440.170380 
	C494.240265,456.006012 485.838440,472.807465 479.034302,490.422394 
	C477.914520,493.321289 476.494598,496.155426 476.251617,499.712463 
	C478.635925,499.387329 479.388519,497.636719 480.443329,496.307465 
	C487.791138,487.047760 494.595062,477.324249 503.585968,469.476044 
	C506.360748,467.053955 509.257629,464.808777 512.524414,463.114349 
	C517.876892,460.338013 521.798706,462.474976 522.267395,468.473358 
	C522.715515,474.208557 520.983337,479.676880 519.916565,485.222382 
	C519.303894,488.407379 518.289246,491.574463 519.098267,495.241302 
	C523.204956,494.196106 525.881531,491.358185 528.986450,489.297729 
	C532.579102,486.913574 535.769165,483.950104 540.025696,482.579193 
	C544.266785,481.213287 547.188110,482.376282 548.963684,486.426514 
	C549.430298,487.490784 549.875427,488.578705 550.182373,489.696442 
	C552.878052,499.510498 555.653137,500.950592 564.755615,496.523285 
	C572.863464,492.579773 580.080811,487.122864 587.656860,482.277771 
	C589.792786,480.911774 590.013611,478.665710 590.324951,476.600525 
	C592.129272,464.631195 599.370911,457.343384 610.633545,452.961243 
M410.297729,528.660400 
	C408.172791,537.354065 405.575378,545.961670 404.761414,554.914978 
	C404.111694,562.062073 403.214447,569.294312 406.239929,576.411255 
	C416.939423,569.344299 425.909241,517.577576 418.863800,503.835297 
	C414.642975,511.631042 412.789429,519.833740 410.297729,528.660400 
M449.785736,435.188873 
	C448.096527,438.585632 446.407318,441.982391 444.718109,445.379150 
	C463.398651,424.569702 479.347015,402.107422 490.882568,376.736694 
	C473.757141,393.543884 461.294617,413.586243 449.785736,435.188873 
M576.643188,538.175232 
	C573.883240,540.584229 571.549072,543.339233 569.901917,546.628662 
	C569.370361,547.690125 569.061829,548.841492 570.023010,549.846741 
	C570.912048,550.776550 571.861694,550.290466 572.700928,549.745850 
	C578.046631,546.276917 580.779663,541.115112 582.979614,535.049561 
	C579.868958,534.806946 578.697083,536.595764 576.643188,538.175232 
z"/>
<path fill="#000000" opacity="1.000000" stroke="none" 
	d="
M462.215088,638.708740 
	C460.403473,636.113342 458.794769,633.813171 457.186066,631.512939 
	C456.826355,631.566833 456.466644,631.620667 456.106934,631.674500 
	C456.106934,637.372070 455.897919,643.079773 456.173492,648.763977 
	C456.391052,653.251221 454.496704,654.466797 450.272705,654.423645 
	C446.255951,654.382446 444.634979,653.182129 444.710968,648.979309 
	C444.912476,637.837463 444.723175,626.689148 444.791901,615.544006 
	C444.804352,613.526672 443.933655,610.571289 446.765381,610.038269 
	C449.855713,609.456482 453.442993,608.500977 455.846466,612.038086 
	C458.931152,616.577759 462.048492,621.095764 465.208160,625.583374 
	C466.338318,627.188538 467.177368,629.079041 469.122528,630.072693 
	C471.321350,629.878479 471.869324,627.868042 472.866089,626.463745 
	C476.138641,621.853149 479.409027,617.232666 482.452209,612.470276 
	C484.902252,608.636108 488.561768,609.331238 491.828339,610.027222 
	C494.870392,610.675415 493.861664,613.835876 493.884918,615.980652 
	C494.003998,626.958618 493.810638,637.941528 494.045288,648.915955 
	C494.143494,653.509521 492.097961,654.410461 488.004181,654.434814 
	C483.781006,654.460083 482.474579,652.878601 482.641907,648.860535 
	C482.881104,643.116028 482.702820,637.354065 481.718811,631.300781 
	C479.928192,633.812073 478.107025,636.302246 476.352905,638.838745 
	C471.824615,645.387085 466.985077,645.454224 462.215088,638.708740 
z"/>
<path fill="#000000" opacity="1.000000" stroke="none" 
	d="
M369.026123,650.673645 
	C366.838257,655.541687 360.716278,655.837036 357.528931,651.537842 
	C352.388947,644.604858 347.400787,637.559326 341.274292,630.643372 
	C341.274292,636.617554 341.000183,642.608398 341.360474,648.560791 
	C341.651917,653.375427 339.598358,654.482483 335.227264,654.430847 
	C331.327484,654.384644 329.902893,653.040283 329.949066,649.195618 
	C330.082947,638.053955 329.947327,626.909241 330.038269,615.766785 
	C330.055878,613.612244 329.161377,610.507202 332.338531,609.970825 
	C335.463593,609.443176 338.951385,608.674683 341.391052,612.172241 
	C345.386047,617.899658 349.563354,623.499878 353.667999,629.150696 
	C354.716309,630.593872 355.541779,632.238403 357.732849,633.514648 
	C357.732849,627.063171 357.950012,620.976135 357.659851,614.913330 
	C357.451355,610.557068 359.395905,609.586853 363.295380,609.598389 
	C367.091461,609.609680 369.213165,610.372925 369.142273,614.785034 
	C368.952606,626.590515 369.066193,638.400940 369.026123,650.673645 
z"/>
<path fill="#000000" opacity="1.000000" stroke="none" 
	d="
M423.253937,616.784546 
	C429.481049,624.905823 430.820709,633.429199 426.442078,642.339844 
	C422.140503,651.093689 414.339325,654.214172 405.035522,654.310425 
	C400.538757,654.356873 396.037201,654.199158 391.545044,654.349548 
	C388.479919,654.452209 387.498108,653.182617 387.529602,650.204163 
	C387.656250,638.212524 387.592224,626.218933 387.636841,614.226257 
	C387.644104,612.269470 387.331482,609.811340 390.316498,609.830322 
	C397.783722,609.877808 405.305695,608.811279 412.699036,610.659119 
	C416.661682,611.649536 420.064301,613.693237 423.253937,616.784546 
M398.522461,622.169922 
	C398.479431,627.989014 398.423218,633.807983 398.401031,639.627136 
	C398.394012,641.472961 398.330750,643.234192 400.844727,643.823486 
	C406.274902,645.096497 412.803284,642.884338 415.532257,638.618042 
	C418.423126,634.098633 417.913879,627.748291 414.344971,623.813171 
	C410.778839,619.881104 404.333801,618.868286 398.522461,622.169922 
z"/>
<path fill="#000000" opacity="1.000000" stroke="none" 
	d="
M724.413940,649.642334 
	C716.945007,641.979858 715.205627,633.235046 718.383118,623.603149 
	C721.364868,614.564697 728.231873,609.807922 737.386230,608.924866 
	C746.378967,608.057495 754.274048,610.882629 759.398621,618.844055 
	C760.839600,621.082764 763.842285,623.710266 761.031982,626.701904 
	C759.243530,628.605835 752.200928,626.883850 750.261780,624.532532 
	C746.126526,619.518433 740.703186,618.085144 735.157959,620.540894 
	C730.871216,622.439270 728.135803,627.151733 728.305847,632.345276 
	C728.490051,637.968628 731.280396,642.039795 736.280884,643.894287 
	C741.205933,645.720886 746.206543,644.802185 748.968872,640.812561 
	C752.737915,635.369141 757.296875,636.673462 763.149902,637.092834 
	C761.516357,643.742371 758.444031,648.745056 752.768555,651.786865 
	C743.092224,656.972778 733.627808,656.694946 724.413940,649.642334 
z"/>
<path fill="#000000" opacity="1.000000" stroke="none" 
	d="
M565.550903,630.296753 
	C559.810303,620.955872 563.251160,612.368652 573.406372,609.575439 
	C579.521423,607.893433 585.328857,608.637207 590.669861,611.906982 
	C594.984924,614.548706 596.882385,618.534485 596.129333,623.968994 
	C591.747009,624.056519 587.549377,626.035278 584.719177,620.561646 
	C583.065918,617.364136 579.262878,617.652710 576.182861,618.899780 
	C572.980652,620.196167 572.858154,622.876526 575.660950,625.025208 
	C577.296204,626.278748 579.285522,626.625793 581.209351,627.152100 
	C584.902832,628.162415 588.575317,629.238464 591.890503,631.243896 
	C598.810852,635.430054 599.541992,646.236206 593.248535,651.354431 
	C586.654175,656.717407 573.415894,656.580444 567.122925,650.932922 
	C564.060913,648.184875 562.039856,644.846191 562.877502,640.047485 
	C567.240784,639.980530 571.951172,637.336487 574.664978,643.521301 
	C575.463623,645.341553 577.877808,645.739197 579.964294,645.714722 
	C582.557007,645.684326 585.385315,645.383972 586.052368,642.486633 
	C586.773743,639.353394 583.994080,638.226624 581.634399,637.410156 
	C576.184570,635.524658 570.157532,635.020020 565.550903,630.296753 
z"/>
<path fill="#000000" opacity="1.000000" stroke="none" 
	d="
M660.947632,650.929993 
	C665.876648,638.522461 670.784546,626.508972 675.406372,614.386414 
	C676.737976,610.893555 678.625854,609.544128 682.403381,609.571411 
	C686.177246,609.598755 688.496094,610.417664 689.945312,614.311096 
	C694.295837,625.998962 699.047424,637.537537 703.636414,649.136780 
	C704.183350,650.519348 704.837646,651.891541 704.415955,653.443909 
	C697.424683,655.476074 695.734131,654.925903 691.609985,648.946472 
	C690.613403,647.501587 689.326782,647.140991 687.775208,647.127625 
	C685.278625,647.106079 682.770874,647.248108 680.287781,647.059387 
	C676.631775,646.781311 673.966553,647.536255 672.481201,651.469849 
	C671.292847,654.617004 663.091858,655.641907 660.845642,653.193909 
	C660.523987,652.843323 660.811890,651.933533 660.947632,650.929993 
M681.447998,627.520996 
	C680.516846,630.766296 678.349854,633.643860 678.312622,637.645325 
	C681.384033,637.470947 684.250305,638.413513 687.432861,636.901917 
	C686.122986,633.381714 684.928284,630.157776 683.723389,626.937683 
	C683.016418,625.048218 682.347839,625.424011 681.447998,627.520996 
z"/>
<path fill="#000000" opacity="1.000000" stroke="none" 
	d="
M618.192017,609.703491 
	C623.499084,609.706665 628.335632,609.541931 633.154175,609.764832 
	C643.098389,610.224915 649.258850,616.445007 649.309998,625.805542 
	C649.361023,635.145081 643.258179,641.433289 633.406616,642.182312 
	C632.743286,642.232788 632.062683,642.317017 631.411926,642.227295 
	C626.753967,641.585449 624.449951,643.301941 625.176208,648.251160 
	C625.893677,653.140503 623.606995,654.576355 618.899963,654.433472 
	C614.891235,654.311707 613.710999,652.746582 613.749268,649.015320 
	C613.867188,637.528137 613.807007,626.038696 613.748413,614.550415 
	C613.734070,611.739624 614.140991,609.484131 618.192017,609.703491 
M626.251343,619.856873 
	C624.168091,623.256287 625.422546,626.948181 625.350159,630.518311 
	C625.332336,631.397339 625.918030,632.168030 626.799438,632.331909 
	C630.001648,632.927490 633.141174,632.739990 635.833252,630.696350 
	C638.150879,628.936951 638.218262,626.366455 637.530090,623.876099 
	C636.640564,620.657043 633.869934,619.787109 630.965271,619.425232 
	C629.664368,619.263184 628.316528,619.477722 626.251343,619.856873 
z"/>
<path fill="#000000" opacity="1.000000" stroke="none" 
	d="
M778.787598,620.039124 
	C778.856079,608.256531 778.006409,609.796631 788.771973,609.695435 
	C794.104370,609.645325 799.440491,609.801941 804.769653,609.663818 
	C808.218384,609.574463 809.034485,611.435486 808.987793,614.359619 
	C808.943787,617.114685 808.534485,619.371460 804.953186,619.271118 
	C801.289917,619.168579 797.620728,619.299316 793.955078,619.252380 
	C791.589172,619.222046 790.159241,619.979553 790.130615,622.650391 
	C790.103271,625.205750 790.783813,626.871460 793.727295,626.808350 
	C796.392029,626.751221 799.064941,626.935181 801.724121,626.805237 
	C805.295288,626.630737 807.350891,627.554016 807.300293,631.766235 
	C807.252686,635.733887 805.343933,636.592407 801.977600,636.374634 
	C799.820190,636.235107 797.646057,636.369507 795.479858,636.345886 
	C792.479980,636.313110 789.908875,636.307373 790.059998,640.703186 
	C790.198181,644.721130 792.463440,644.798523 795.340210,644.745178 
	C798.671875,644.683289 802.009094,644.845642 805.338074,644.735474 
	C808.888550,644.617920 809.335876,646.726685 809.352112,649.569885 
	C809.368530,652.443848 808.878967,654.409180 805.325684,654.347351 
	C797.995178,654.219788 790.657959,654.192322 783.329285,654.366760 
	C779.723083,654.452637 778.728882,652.802307 778.761780,649.529419 
	C778.858948,639.864502 778.790894,630.197815 778.787598,620.039124 
z"/>
<path fill="#000000" opacity="1.000000" stroke="none" 
	d="
M278.806152,629.617432 
	C283.753601,629.602356 283.020660,632.867615 283.077911,635.643982 
	C283.145203,638.904175 281.078003,639.467651 278.446869,639.338806 
	C278.114441,639.322571 277.780365,639.336304 277.447113,639.341248 
	C267.601349,639.486877 267.431458,639.484436 267.284241,649.361755 
	C267.223785,653.419800 265.559357,654.489014 261.827240,654.394348 
	C258.296051,654.304626 255.684937,654.147339 255.767883,649.443298 
	C255.973511,637.781433 255.891541,626.112732 255.785568,614.448059 
	C255.755295,611.115784 256.853333,609.558838 260.400787,609.650879 
	C266.895844,609.819519 273.402100,609.833679 279.896301,609.651184 
	C283.523651,609.549194 284.446075,611.205200 284.385498,614.485901 
	C284.327301,617.639038 284.139862,620.207214 279.975311,619.979065 
	C277.317047,619.833435 274.635437,620.092346 271.979828,619.924316 
	C268.178467,619.683838 267.152954,621.491943 267.158386,625.039001 
	C267.163666,628.513916 268.361938,629.923950 271.842590,629.614990 
	C273.991150,629.424255 276.172150,629.598450 278.806152,629.617432 
z"/>
<path fill="#000000" opacity="1.000000" stroke="none" 
	d="
M525.310059,653.923218 
	C523.555176,652.617432 523.520081,651.000305 523.757690,649.582825 
	C525.222351,640.845459 521.322571,633.792480 517.017456,626.753601 
	C513.849792,621.574646 511.030487,616.182617 507.958405,610.711853 
	C517.653320,608.159485 519.519348,608.902649 523.646057,616.408691 
	C525.382629,619.567139 527.090454,622.741394 529.241638,626.700317 
	C531.515747,622.571594 533.334595,619.264648 535.157776,615.960144 
	C538.998108,608.999634 541.301453,608.140869 549.940308,610.673584 
	C548.186951,616.279419 544.952148,621.141418 541.922180,625.990845 
	C537.157593,633.616394 533.384460,641.337097 534.669617,650.676819 
	C535.011414,653.160645 533.809814,654.442139 531.222656,654.306519 
	C529.395874,654.210693 527.566162,654.168640 525.310059,653.923218 
z"/>
<path fill="#000000" opacity="1.000000" stroke="none" 
	d="
M496.244873,690.759766 
	C500.017761,688.802185 502.608185,690.102844 504.532867,693.101624 
	C507.979736,691.453918 511.028992,687.780701 514.685486,690.836426 
	C518.137268,693.721191 515.156128,697.300110 514.522888,700.550110 
	C514.302124,701.683105 513.864197,702.773743 513.454102,704.117493 
	C514.605835,704.718323 516.288513,702.627380 517.114380,704.549072 
	C517.769287,706.072815 516.760742,707.137451 515.720642,707.960571 
	C514.300354,709.084656 512.848938,710.310059 511.202362,710.979187 
	C507.542969,712.466064 505.194916,710.555969 505.954315,706.644470 
	C506.607269,703.281250 507.747467,700.012573 508.975342,695.616821 
	C503.883789,698.956909 502.527740,703.406738 500.735504,707.551697 
	C498.989990,711.588623 498.809631,711.674561 493.860931,710.509521 
	C492.879333,707.960510 494.404816,705.705139 494.870392,703.335510 
	C495.310059,701.097534 495.999329,698.908691 496.765350,695.986572 
	C492.314362,697.917236 491.088837,701.540344 489.463654,704.782532 
	C488.648834,706.408203 488.238739,708.247620 487.346985,709.821106 
	C486.223999,711.802490 484.201141,711.479370 482.445374,710.984253 
	C480.368317,710.398560 480.966919,708.737915 481.360992,707.285950 
	C482.183655,704.254700 483.026825,701.228943 483.836945,698.290222 
	C482.802032,696.713745 479.601990,698.590942 480.083832,696.107605 
	C480.743134,692.709534 483.869232,691.219604 486.825653,690.107056 
	C489.868866,688.961731 490.783661,691.486389 491.852539,693.820923 
	C493.280090,692.798889 494.594421,691.857910 496.244873,690.759766 
z"/>
<path fill="#000000" opacity="1.000000" stroke="none" 
	d="
M300.675781,650.806274 
	C300.642853,638.528809 300.769928,626.732056 300.544617,614.942017 
	C300.463135,610.677673 302.179199,609.557495 306.141083,609.601379 
	C309.875336,609.642822 311.496094,610.639587 311.418793,614.703064 
	C311.197754,626.326965 311.360779,637.957703 311.314392,649.585632 
	C311.306824,651.482605 311.770081,654.161377 308.835449,654.081787 
	C305.962219,654.003906 301.939819,656.382935 300.675781,650.806274 
z"/>
<path fill="#000000" opacity="1.000000" stroke="none" 
	d="
M654.533752,710.030273 
	C650.805481,711.727234 647.345764,712.311462 644.301331,709.765198 
	C641.314148,707.266968 641.790833,703.874756 642.671265,700.522766 
	C643.684753,696.664062 644.579102,692.773376 645.638000,688.927673 
	C646.326172,686.428589 646.731323,684.067749 644.075256,682.236938 
	C646.576965,678.942444 650.097717,679.110291 653.224121,678.804932 
	C655.307007,678.601501 655.314026,680.487854 654.838501,682.077759 
	C653.802917,685.539856 652.733093,688.991699 651.472351,693.118225 
	C653.068970,692.091309 653.963196,691.404541 654.950439,690.899841 
	C659.981628,688.327637 664.130005,690.989563 663.641113,696.660950 
	C663.132812,702.557617 659.936340,706.864075 654.533752,710.030273 
M649.816101,703.049011 
	C649.350220,704.189331 649.094666,705.373413 650.339172,706.133972 
	C651.578735,706.891479 652.647766,706.109131 653.392273,705.233276 
	C655.594421,702.642883 656.592285,699.762390 655.364136,696.159790 
	C652.362061,697.633301 651.245056,700.037659 649.816101,703.049011 
z"/>
<path fill="#000000" opacity="1.000000" stroke="none" 
	d="
M686.670898,695.222168 
	C687.525146,694.034729 688.205261,693.077271 689.044922,692.290039 
	C690.635864,690.798645 692.378052,689.193237 694.747314,690.185059 
	C696.854309,691.067078 697.065613,693.233887 697.292358,695.245239 
	C697.496887,697.059265 697.745422,698.868469 697.938354,700.683655 
	C698.128052,702.468323 698.272400,704.257874 698.505066,706.789917 
	C701.502441,702.514587 701.828857,698.325256 701.668335,694.035767 
	C701.588379,691.898132 701.566650,689.799866 704.482361,689.854431 
	C707.104004,689.903442 708.426208,691.529602 708.361694,694.061951 
	C708.320190,695.695068 708.140991,697.415710 707.574951,698.929443 
	C704.456360,707.268738 699.066284,713.908264 691.880554,719.088623 
	C689.549438,720.769165 686.938171,721.879456 683.943298,721.400391 
	C681.804321,721.058289 680.594666,719.757629 680.984924,717.588440 
	C681.320862,715.720825 682.488403,715.036072 684.623352,715.258972 
	C691.387085,715.965332 692.121704,715.139465 691.581055,708.380005 
	C691.435303,706.557983 691.182678,704.744812 691.010193,702.924622 
	C690.838440,701.111450 690.705750,699.294495 690.563049,697.566040 
	C689.281067,696.528137 686.326843,699.139709 686.670898,695.222168 
z"/>
<path fill="#000000" opacity="1.000000" stroke="none" 
	d="
M621.684937,709.289246 
	C619.248840,711.267395 616.834778,712.515564 614.210144,710.633789 
	C611.578796,708.747192 611.455322,705.885864 612.071716,702.965759 
	C614.179199,692.981323 622.644470,687.668213 632.557800,690.035400 
	C633.977295,690.374329 634.575378,691.182495 634.359314,692.503601 
	C634.092407,694.136047 633.750977,695.774231 633.242310,697.345398 
	C632.243591,700.430664 630.971741,703.510254 635.627014,704.613892 
	C632.376099,711.410522 628.767151,712.501648 623.627319,708.587036 
	C622.969055,708.085693 622.426270,708.685364 621.684937,709.289246 
M625.029846,694.364136 
	C620.419312,696.420166 618.845032,699.795593 620.376892,705.260254 
	C622.622864,701.621155 626.379700,699.276733 625.029846,694.364136 
z"/>
<path fill="#000000" opacity="1.000000" stroke="none" 
	d="
M532.235718,703.035156 
	C531.212280,708.931641 529.623901,714.143982 525.621704,718.285828 
	C523.960938,720.004578 522.125366,721.371216 519.569763,721.345947 
	C517.618530,721.326660 516.227661,720.529358 516.320496,718.452332 
	C516.395874,716.765869 516.949341,714.752930 519.177063,715.243713 
	C522.506836,715.977234 522.818726,713.652771 523.308350,711.611938 
	C524.200317,707.894165 524.889038,704.127075 525.633728,700.374817 
	C526.198242,697.530457 527.432861,694.553772 523.462280,692.347168 
	C527.031189,690.621460 528.359985,687.815369 529.955566,685.117065 
	C531.852539,681.909058 534.532776,679.324402 538.396301,678.583191 
	C540.421997,678.194519 542.176025,678.841187 542.231567,681.288208 
	C542.270691,683.013367 541.799500,684.940247 539.567261,684.670715 
	C537.240540,684.389832 535.808838,684.579773 535.155823,687.237549 
	C534.352966,690.504456 537.811157,689.588806 539.028320,691.978271 
	C534.953186,694.138184 532.267029,697.631714 532.235718,703.035156 
z"/>
<path fill="#000000" opacity="1.000000" stroke="none" 
	d="
M322.192780,685.777344 
	C326.293915,680.847961 331.023926,683.505676 336.079651,684.312500 
	C329.747345,688.584778 330.221344,695.348633 328.826782,701.349915 
	C328.430389,703.055603 327.336761,705.308716 329.471771,706.258789 
	C331.755798,707.275208 334.376495,707.210388 336.297241,704.928162 
	C337.042847,704.042236 337.690277,702.972107 338.629730,702.374756 
	C340.014038,701.494385 341.665619,702.006531 341.448608,703.675415 
	C341.064423,706.629944 340.014587,710.519043 337.059357,710.883423 
	C330.480103,711.694580 323.716278,711.916138 315.704773,710.417419 
	C322.308319,705.342285 321.561066,698.591980 323.311340,692.740845 
	C324.001556,690.433411 323.999603,688.139709 322.192780,685.777344 
z"/>
<path fill="#000000" opacity="1.000000" stroke="none" 
	d="
M469.876038,707.858215 
	C467.746399,709.831726 465.656464,711.102295 463.086151,711.428650 
	C457.286224,712.165100 453.263672,708.571533 453.821808,702.768127 
	C454.342926,697.350281 456.813080,692.978149 462.039795,690.677063 
	C465.265564,689.256897 468.557373,689.066650 471.366272,691.544312 
	C474.107727,693.962219 474.678253,697.104492 473.723083,700.609863 
	C473.015656,703.206055 472.014404,705.615417 469.876038,707.858215 
M461.295319,703.830627 
	C461.542480,705.212708 461.612701,707.664429 463.512634,706.617371 
	C466.976837,704.708252 466.722595,700.865234 466.667267,697.399292 
	C466.645538,696.038269 466.303619,694.224548 464.707672,694.621094 
	C461.801056,695.343201 461.883240,698.279358 461.374207,700.620483 
	C461.202789,701.409058 461.299377,702.255798 461.295319,703.830627 
z"/>
<path fill="#000000" opacity="1.000000" stroke="none" 
	d="
M542.514587,707.101685 
	C540.949219,698.872986 545.187012,691.578735 552.060059,690.003784 
	C558.367554,688.558533 563.063293,692.850525 562.046570,699.251526 
	C561.308716,703.897278 559.218018,707.765503 554.927917,710.115906 
	C550.327820,712.636169 546.218323,711.732056 542.514587,707.101685 
M554.710327,697.212036 
	C554.387878,695.147339 554.199646,692.466492 551.323425,695.231873 
	C548.690002,697.763855 548.743835,703.742981 551.204895,707.031494 
	C554.718079,704.892090 554.707397,701.424316 554.710327,697.212036 
z"/>
<path fill="#000000" opacity="1.000000" stroke="none" 
	d="
M396.134949,709.754883 
	C390.697052,701.583862 396.074921,690.426453 405.360748,689.764465 
	C407.979980,689.577698 410.512543,689.966003 411.698669,692.646851 
	C412.939545,695.451294 411.060547,697.273682 409.202789,699.062012 
	C406.978546,701.203186 403.450592,701.525146 401.587646,704.301147 
	C403.656494,706.855835 405.593689,705.422974 407.488922,704.553589 
	C408.588318,704.049255 409.714508,703.468567 410.520203,704.845825 
	C411.255341,706.102478 410.356598,707.013916 409.578064,707.901489 
	C406.313782,711.622681 401.711304,712.366821 396.134949,709.754883 
z"/>
<path fill="#000000" opacity="1.000000" stroke="none" 
	d="
M366.808868,693.877686 
	C369.053345,691.604614 371.499634,688.536621 374.152283,690.334106 
	C378.534546,693.303589 376.573914,698.853516 377.686310,703.724854 
	C381.158783,701.047852 381.079529,697.456787 380.986115,693.967102 
	C380.924622,691.670044 381.267700,689.839233 384.010651,689.899292 
	C386.592682,689.955750 387.900513,691.592590 388.099823,694.064575 
	C388.470428,698.660645 380.051666,710.145264 375.569733,711.137634 
	C372.754272,711.760986 371.072174,710.736694 370.859222,707.660645 
	C370.630585,704.358032 370.986053,700.980347 369.692535,697.680115 
	C367.837860,697.299194 364.230713,698.295959 366.808868,693.877686 
z"/>
<path fill="#000000" opacity="1.000000" stroke="none" 
	d="
M679.522217,695.339600 
	C678.789001,698.129395 678.164246,700.534058 677.487549,703.138733 
	C678.093750,704.643799 682.451904,702.745605 680.857605,706.111633 
	C679.281006,709.440369 676.288635,711.512573 672.494507,711.397400 
	C669.904053,711.318665 669.365479,709.023193 669.805054,706.938110 
	C670.966431,701.428528 672.353210,695.965881 673.679993,690.491760 
	C674.414795,687.460022 676.089722,684.349854 671.826599,682.057922 
	C675.598633,679.194092 679.011414,678.802917 683.146667,678.884216 
	C683.213196,684.742554 680.647278,689.701355 679.522217,695.339600 
z"/>
<path fill="#000000" opacity="1.000000" stroke="none" 
	d="
M593.418823,710.008911 
	C591.816284,706.487183 593.118286,703.429382 593.862488,700.415222 
	C594.560303,697.588562 595.224365,694.935242 592.658691,692.594299 
	C595.536865,689.294983 598.959229,687.435486 602.516479,685.455200 
	C604.556824,687.404053 603.640991,691.522339 608.543335,690.952515 
	C602.507263,694.421082 599.845276,698.875122 600.255005,704.996460 
	C602.335999,705.950378 603.090820,702.826721 605.367004,703.483948 
	C607.097900,705.844849 605.086975,707.308655 603.573608,708.591248 
	C600.680176,711.043457 597.531067,712.931213 593.418823,710.008911 
z"/>
<path fill="#000000" opacity="1.000000" stroke="none" 
	d="
M568.215881,697.056152 
	C569.964417,690.331055 575.262268,688.246094 579.554688,692.456116 
	C580.434692,691.812805 581.308411,691.093506 582.259583,690.497986 
	C583.631287,689.639221 585.093689,689.449097 586.431519,690.533569 
	C587.562012,691.449890 587.893982,692.703857 587.516785,694.122559 
	C587.070435,695.801575 585.994934,696.195190 584.265320,696.479492 
	C578.422729,697.439758 578.303345,702.988647 576.772583,707.055359 
	C575.229370,711.155212 573.035278,712.052551 569.131836,710.588989 
	C568.662903,705.979004 571.323425,702.151611 571.612549,697.749451 
	C570.500916,697.601440 569.452698,697.461914 568.215881,697.056152 
z"/>
<path fill="#000000" opacity="1.000000" stroke="none" 
	d="
M447.075592,690.615479 
	C449.310547,692.474915 449.960571,694.260742 447.924561,696.604126 
	C447.399597,696.484253 446.734344,696.471924 446.213196,696.191589 
	C441.453217,693.631592 439.375122,694.579407 438.502380,699.908875 
	C438.213318,701.674011 437.777100,703.673706 439.425507,705.047241 
	C440.951965,706.319153 442.543396,705.530884 444.069336,704.760986 
	C445.187256,704.196960 446.448669,702.949158 447.528503,704.598145 
	C448.612457,706.253418 447.269257,707.383423 446.205414,708.422241 
	C442.976135,711.575623 437.450714,712.477539 434.266479,710.220337 
	C430.185455,707.327332 430.137177,703.378052 431.645447,699.084290 
	C434.122986,692.031067 439.605652,688.853455 447.075592,690.615479 
z"/>
<path fill="#000000" opacity="1.000000" stroke="none" 
	d="
M349.504578,693.474792 
	C350.830078,692.425964 351.831116,691.521484 352.971832,690.856506 
	C354.422028,690.010986 355.998169,689.334595 357.682739,690.312073 
	C359.667786,691.463928 359.526550,693.432556 359.176117,695.199829 
	C358.627869,697.964722 357.747650,700.663757 356.989838,703.457886 
	C359.845459,703.773315 362.060211,704.426758 359.155396,707.612122 
	C357.790070,709.109375 356.212982,710.372375 354.304199,711.046875 
	C350.618988,712.349060 348.257446,710.412292 349.040619,706.585632 
	C349.638000,703.666748 350.681091,700.839111 351.548279,697.894897 
	C348.722137,697.554138 346.300079,697.025513 349.504578,693.474792 
z"/>
<path fill="#000000" opacity="1.000000" stroke="none" 
	d="
M362.005035,682.899292 
	C361.257507,685.861938 359.669739,687.403625 356.909119,687.007751 
	C355.102875,686.748718 353.953735,685.485046 353.851288,683.577820 
	C353.740967,681.523987 354.712524,679.951355 356.611237,679.273926 
	C359.584900,678.213074 361.416931,679.424438 362.005035,682.899292 
z"/>
</svg>