<svg version="1.1" id="Layer_1" xmlns="http://www.w3.org/2000/svg" xmlns:xlink="http://www.w3.org/1999/xlink" x="0px" y="0px"
	 width="100%" viewBox="0 0 2000 2000" enable-background="new 0 0 2000 2000" xml:space="preserve">
<path fill="#033F63" opacity="1.000000" stroke="none" 
	d="
M1313.000000,2001.000000 
	C875.333313,2001.000000 438.166656,2001.000000 1.000000,2001.000000 
	C1.000000,1334.333374 1.000000,667.666687 1.000000,1.000000 
	C667.666687,1.000000 1334.333374,1.000000 2001.000000,1.000000 
	C2001.000000,667.666687 2001.000000,1334.333374 2001.000000,2001.000000 
	C1771.833374,2001.000000 1542.666626,2001.000000 1313.000000,2001.000000 
M440.976654,1417.500000 
	C440.976654,1531.823730 440.941925,1646.147583 441.085236,1760.471191 
	C441.091980,1765.848755 441.677460,1771.646118 443.723907,1776.521729 
	C449.902344,1791.241699 461.812622,1797.234253 477.516846,1797.216553 
	C596.337402,1797.082275 715.158142,1797.038330 833.978821,1797.045898 
	C953.132935,1797.053467 1072.286987,1797.180908 1191.441162,1797.203857 
	C1306.931152,1797.226196 1422.421875,1796.991089 1537.910645,1797.346313 
	C1558.300293,1797.409058 1574.806396,1783.283569 1574.786865,1760.570679 
	C1574.583130,1524.090942 1574.654541,1287.610840 1574.731567,1051.130859 
	C1574.732666,1047.811890 1573.697510,1045.649902 1571.236572,1043.476318 
	C1517.662354,996.158936 1464.167114,948.752075 1410.642456,901.378479 
	C1283.006714,788.410767 1155.364258,675.450684 1027.721680,562.490662 
	C1021.140564,556.666565 1014.533630,550.871765 1007.894592,545.024475 
	C1005.429321,547.225403 1003.326843,549.117371 1001.208557,550.991394 
	C901.378540,639.313599 801.538086,727.624084 701.718750,815.958313 
	C616.123047,891.705261 530.567810,967.497864 444.898193,1043.161011 
	C441.973236,1045.744263 440.902222,1048.237793 440.904938,1052.030884 
	C440.992096,1173.520630 440.976654,1295.010254 440.976654,1417.500000 
M1255.176636,486.333923 
	C1173.981934,414.437378 1092.787354,342.540802 1011.428040,270.498444 
	C1010.166199,271.592712 1009.097229,272.519775 1007.978760,273.489746 
	C1006.728821,272.426270 1005.650879,271.509125 1004.422546,270.464020 
	C736.416260,507.736847 468.624084,744.820129 200.629700,982.082397 
	C229.009933,1014.085693 257.051819,1045.707397 285.239960,1077.494141 
	C526.355408,864.151672 767.129761,651.110962 1007.981262,438.002075 
	C1249.026733,651.343933 1489.665161,864.325439 1730.528564,1077.506104 
	C1758.809692,1045.561890 1786.822021,1013.921265 1814.983032,982.112732 
	C1814.002563,981.182373 1813.316040,980.490906 1812.588257,979.846313 
	C1755.338867,929.138489 1698.091431,878.428650 1640.833130,827.731201 
	C1566.484253,761.901550 1492.128418,696.079895 1417.771973,630.259033 
	C1363.751221,582.439575 1309.724487,534.626953 1255.176636,486.333923 
M451.495880,665.993958 
	C452.845734,664.753784 454.186432,663.503540 455.546814,662.275024 
	C516.996338,606.779541 578.460388,551.300110 639.827515,495.713623 
	C641.437683,494.255127 642.866516,491.649506 642.909851,489.548523 
	C643.682495,452.065765 644.231018,414.578339 644.807312,377.091614 
	C644.829102,375.675507 644.644592,374.256226 644.550049,372.740234 
	C576.551636,372.740234 508.959412,372.740234 441.285095,372.740234 
	C441.285095,473.490753 441.285095,573.995361 441.285095,675.110046 
	C444.828857,671.949829 447.901062,669.210083 451.495880,665.993958 
z"/>
<path fill="#FEFFFF" opacity="1.000000" stroke="none" 
	d="
M440.976654,1417.000000 
	C440.976654,1295.010254 440.992096,1173.520630 440.904938,1052.030884 
	C440.902222,1048.237793 441.973236,1045.744263 444.898193,1043.161011 
	C530.567810,967.497864 616.123047,891.705261 701.718750,815.958313 
	C801.538086,727.624084 901.378540,639.313599 1001.208557,550.991394 
	C1003.326843,549.117371 1005.429321,547.225403 1007.894592,545.024475 
	C1014.533630,550.871765 1021.140564,556.666565 1027.721680,562.490662 
	C1155.364258,675.450684 1283.006714,788.410767 1410.642456,901.378479 
	C1464.167114,948.752075 1517.662354,996.158936 1571.236572,1043.476318 
	C1573.697510,1045.649902 1574.732666,1047.811890 1574.731567,1051.130859 
	C1574.654541,1287.610840 1574.583130,1524.090942 1574.786865,1760.570679 
	C1574.806396,1783.283569 1558.300293,1797.409058 1537.910645,1797.346313 
	C1422.421875,1796.991089 1306.931152,1797.226196 1191.441162,1797.203857 
	C1072.286987,1797.180908 953.132935,1797.053467 833.978821,1797.045898 
	C715.158142,1797.038330 596.337402,1797.082275 477.516846,1797.216553 
	C461.812622,1797.234253 449.902344,1791.241699 443.723907,1776.521729 
	C441.677460,1771.646118 441.091980,1765.848755 441.085236,1760.471191 
	C440.941925,1646.147583 440.976654,1531.823730 440.976654,1417.000000 
M710.968445,1347.713135 
	C710.968445,1385.326660 710.968445,1422.940308 710.968445,1460.776367 
	C726.775146,1460.776367 742.174988,1460.776367 757.782898,1460.776367 
	C757.782898,1390.521973 757.782898,1320.467529 757.782898,1249.999634 
	C741.949707,1249.999634 726.329956,1250.101807 710.713440,1249.919922 
	C707.281494,1249.879883 705.498535,1250.830444 703.934692,1254.055664 
	C693.424133,1275.733521 682.646790,1297.282227 671.953491,1318.871338 
	C663.506836,1335.924683 655.056396,1352.976196 646.288391,1370.672974 
	C645.094177,1368.504395 644.184692,1366.974854 643.388000,1365.388428 
	C624.897156,1328.565063 606.347656,1291.770874 588.042175,1254.855469 
	C586.118042,1250.975220 583.976501,1249.760010 579.759399,1249.887573 
	C568.772034,1250.220459 557.767822,1249.999756 546.770325,1249.999756 
	C542.476990,1249.999756 538.183655,1249.999634 533.844299,1249.999634 
	C533.844299,1320.547852 533.844299,1390.596680 533.844299,1460.683350 
	C549.524353,1460.683350 564.918152,1460.683350 580.894043,1460.683350 
	C580.894043,1420.744141 580.894043,1381.118530 580.894043,1341.493042 
	C582.442505,1342.807495 583.228149,1344.212891 583.957458,1345.646973 
	C598.041504,1373.343994 612.153503,1401.026855 626.142883,1428.771729 
	C627.503296,1431.469971 628.987427,1432.678833 632.170837,1432.588013 
	C640.828430,1432.340454 649.505249,1432.292969 658.159058,1432.599487 
	C662.005676,1432.735718 664.030701,1431.587158 665.799561,1428.056763 
	C679.719360,1400.275513 693.872864,1372.611206 707.961548,1344.914429 
	C708.670105,1343.521362 709.444763,1342.161865 710.188660,1340.786743 
	C710.448608,1340.861572 710.708496,1340.936523 710.968445,1341.011353 
	C710.968445,1342.938354 710.968445,1344.865479 710.968445,1347.713135 
M954.408386,1077.930298 
	C942.571045,1092.833496 936.913452,1109.937622 936.995239,1128.831909 
	C937.137573,1161.741821 949.652649,1188.115845 980.226807,1202.768311 
	C1000.526550,1212.496948 1021.967834,1213.697632 1042.727661,1202.855835 
	C1047.622925,1200.299194 1051.882690,1196.525879 1056.547363,1193.232788 
	C1057.511230,1197.902466 1058.407593,1202.244873 1059.294189,1206.539917 
	C1073.432983,1206.539917 1087.187988,1206.539917 1101.140625,1206.539917 
	C1101.140625,1134.325073 1101.140625,1062.408936 1101.140625,990.245605 
	C1085.571655,990.245605 1070.164307,990.245605 1054.252930,990.245605 
	C1054.252930,1002.722351 1054.252808,1015.005798 1054.252808,1027.289307 
	C1054.252808,1039.515869 1054.252930,1051.742432 1054.252930,1064.450684 
	C1021.018372,1040.041748 974.334351,1051.037720 954.408386,1077.930298 
M856.319397,1683.791016 
	C868.047913,1664.860352 870.201904,1644.224854 866.866150,1622.740601 
	C862.126770,1592.215576 838.685425,1567.164429 808.961304,1561.327026 
	C787.970032,1557.204834 768.158142,1559.495361 751.489929,1574.673950 
	C750.807617,1575.295288 749.943176,1575.716553 748.737061,1576.512695 
	C747.707458,1571.739868 746.778381,1567.433105 745.872192,1563.232666 
	C731.696960,1563.232666 717.821899,1563.232666 704.018311,1563.232666 
	C704.018311,1635.080933 704.018311,1706.529053 704.018311,1778.073853 
	C719.719421,1778.073853 735.234375,1778.073853 751.054321,1778.073853 
	C751.054321,1753.567871 751.054321,1729.490234 751.054321,1705.186523 
	C786.637756,1731.487061 836.414124,1717.562988 856.319397,1683.791016 
M682.282837,1662.732056 
	C685.603699,1634.081177 674.016174,1612.531982 647.843750,1600.379272 
	C636.122253,1594.936523 623.703979,1591.014404 611.760315,1586.023193 
	C603.074402,1582.393311 594.162781,1578.916626 586.239868,1573.953979 
	C577.976074,1568.777466 577.993652,1555.445190 584.825562,1548.405518 
	C593.173706,1539.803589 617.379211,1539.012573 624.641479,1553.604248 
	C626.930298,1558.203247 627.760315,1563.528076 629.338623,1568.789551 
	C644.998352,1568.789551 661.372864,1568.789551 677.846008,1568.789551 
	C677.831177,1544.598389 669.482727,1524.727905 648.398987,1512.547363 
	C624.292725,1498.620972 598.287842,1497.090942 572.277588,1506.474243 
	C540.176025,1518.055054 525.595886,1545.612915 533.034302,1578.771118 
	C536.834351,1595.710815 548.258789,1606.880615 563.164673,1613.917725 
	C577.231995,1620.558838 592.218262,1625.237305 606.719604,1630.983032 
	C612.408447,1633.237183 618.264160,1635.442505 623.373108,1638.716675 
	C637.320312,1647.654907 637.026306,1666.957275 622.980042,1674.367310 
	C619.825928,1676.031250 616.081482,1676.860962 612.507202,1677.396118 
	C594.675964,1680.065552 580.264648,1671.470825 576.398560,1655.894775 
	C575.496765,1652.261719 575.307556,1648.452026 574.796936,1644.769409 
	C558.500916,1644.769409 542.555908,1644.769409 526.599365,1644.769409 
	C526.431274,1645.496826 526.208069,1645.971069 526.233765,1646.431396 
	C526.400696,1649.422729 526.600159,1652.412598 526.828369,1655.399902 
	C528.953918,1683.217041 544.009399,1701.708496 569.150330,1711.972900 
	C591.478516,1721.088867 614.731079,1721.848145 637.606628,1714.342285 
	C662.085510,1706.310425 677.796631,1689.724121 682.282837,1662.732056 
M912.104675,1574.571045 
	C897.567505,1586.287964 889.873474,1601.308472 889.655640,1620.229004 
	C905.012939,1620.229004 919.924561,1620.229004 934.740845,1620.229004 
	C940.318726,1603.693726 950.785889,1597.118042 966.341980,1600.160034 
	C977.954895,1602.430786 984.472473,1610.111450 983.705017,1621.093872 
	C971.929382,1621.093872 960.116272,1620.901001 948.312378,1621.148071 
	C936.425354,1621.396606 924.813049,1623.323608 913.841553,1628.246216 
	C884.190491,1641.550049 876.921021,1680.443726 899.862122,1703.442993 
	C909.654846,1713.260864 922.074280,1717.126953 935.459717,1718.408447 
	C954.456848,1720.227173 971.987000,1717.049927 986.106689,1702.853027 
	C986.609375,1702.347656 987.343506,1702.072632 987.820618,1701.781250 
	C989.211182,1706.544189 989.200439,1712.904297 992.141357,1714.887695 
	C995.478088,1717.137695 1001.457275,1715.469604 1006.287659,1715.504150 
	C1006.620972,1715.506592 1006.954224,1715.504395 1007.287537,1715.504395 
	C1015.224609,1715.504395 1023.161682,1715.504395 1031.013306,1715.504395 
	C1031.256836,1714.381104 1031.449829,1713.908936 1031.448608,1713.437256 
	C1031.368408,1681.277588 1031.878174,1649.100830 1030.980469,1616.963623 
	C1030.300293,1592.606689 1018.057861,1574.479736 995.151733,1565.829956 
	C966.676941,1555.077393 938.697876,1556.876953 912.104675,1574.571045 
M1259.746704,1707.827271 
	C1269.108887,1711.099121 1278.238159,1715.860840 1287.876465,1717.367310 
	C1318.369141,1722.134033 1344.650269,1714.117798 1363.772583,1688.421143 
	C1369.965088,1680.099609 1373.843994,1670.672729 1376.078003,1660.521729 
	C1375.302612,1660.341919 1374.979858,1660.202148 1374.656738,1660.201660 
	C1360.990845,1660.180420 1347.323853,1660.265137 1333.660034,1660.094849 
	C1330.307495,1660.053223 1328.447144,1660.871826 1326.770752,1664.128662 
	C1321.036255,1675.269165 1309.564819,1680.194336 1296.274292,1677.854126 
	C1282.718384,1675.467407 1273.140137,1666.097656 1271.358276,1653.103760 
	C1306.829346,1653.103760 1342.243652,1653.103760 1378.057983,1653.103760 
	C1378.356812,1646.568970 1378.996094,1640.437866 1378.854614,1634.324829 
	C1378.226318,1607.184082 1367.584473,1585.301147 1344.139893,1570.641968 
	C1327.923828,1560.503052 1309.921021,1558.148560 1291.289429,1560.246582 
	C1270.919556,1562.540283 1253.819336,1571.261353 1240.879639,1587.494751 
	C1228.984497,1602.417725 1223.820801,1619.660034 1223.663330,1638.494263 
	C1223.419922,1667.627075 1233.859375,1691.365601 1259.746704,1707.827271 
M533.553833,1057.499512 
	C533.553833,1107.211914 533.553833,1156.924194 533.553833,1206.536621 
	C549.671936,1206.536621 564.926270,1206.536621 580.763306,1206.536621 
	C580.763306,1177.869629 580.763306,1149.499146 580.763306,1120.595703 
	C606.062378,1120.595703 630.778931,1120.595703 655.419556,1120.595703 
	C655.419556,1107.329102 655.419556,1094.606934 655.419556,1081.293701 
	C630.357422,1081.293701 605.648926,1081.293701 580.966919,1081.293701 
	C580.966919,1065.775024 580.966919,1050.857300 580.966919,1035.448120 
	C611.823486,1035.448120 642.387756,1035.448120 673.196167,1035.448120 
	C673.196167,1022.036194 673.196167,1009.119507 673.196167,996.203735 
	C626.587585,996.203735 580.222473,996.203735 533.553894,996.203735 
	C533.553894,1016.549927 533.553894,1036.524658 533.553833,1057.499512 
M823.788940,1473.268433 
	C816.160217,1490.015503 808.531494,1506.762695 800.602905,1524.168213 
	C802.940735,1524.168213 804.547485,1524.168213 806.154175,1524.168213 
	C819.486328,1524.168213 832.821167,1524.021973 846.148987,1524.262695 
	C849.859070,1524.329712 851.614929,1523.226807 853.132996,1519.757080 
	C883.099976,1451.263428 913.220276,1382.836792 943.301514,1314.393066 
	C944.063538,1312.659424 944.735535,1310.886353 945.703613,1308.506836 
	C929.097168,1308.506836 913.303467,1308.432129 897.514160,1308.658813 
	C896.341553,1308.675659 894.718140,1310.651978 894.118591,1312.063232 
	C888.012817,1326.435303 882.077087,1340.879761 876.092102,1355.303223 
	C870.052185,1369.859375 864.010254,1384.414551 857.681213,1399.664062 
	C856.798584,1397.625000 856.202393,1396.337402 855.677246,1395.021362 
	C844.717590,1367.556274 833.727539,1340.103027 822.867126,1312.598755 
	C821.668884,1309.564087 820.209778,1308.327881 816.725281,1308.391235 
	C802.897705,1308.642700 789.062927,1308.494873 775.230774,1308.494995 
	C773.680420,1308.494995 772.130066,1308.494995 770.280090,1308.494995 
	C770.809814,1310.198120 770.994751,1311.019043 771.313110,1311.784424 
	C790.260254,1357.342285 809.196533,1402.904663 828.257263,1448.415039 
	C829.006531,1450.204224 830.952759,1451.491821 832.742737,1453.452881 
	C830.096985,1459.266602 827.072510,1465.912476 823.788940,1473.268433 
M814.155823,1130.637329 
	C814.286438,1118.364746 815.982849,1106.723022 826.219788,1098.149658 
	C841.778137,1085.119995 864.440247,1092.587891 868.448425,1112.312500 
	C869.468201,1117.331055 869.760681,1122.566406 869.788696,1127.705566 
	C869.922058,1152.197266 869.849060,1176.689941 869.849426,1201.182373 
	C869.849426,1202.947876 869.849426,1204.713379 869.849426,1206.466797 
	C885.878967,1206.466797 901.262024,1206.466797 916.638367,1206.466797 
	C916.638367,1175.120728 916.696472,1144.146484 916.568665,1113.172974 
	C916.551636,1109.046021 915.689148,1104.908081 915.053406,1100.800537 
	C908.798889,1060.391113 867.302917,1038.399902 830.245789,1056.097656 
	C823.476440,1059.330688 817.388855,1063.991089 811.068848,1067.941162 
	C810.482666,1063.624878 809.840393,1058.895996 809.208435,1054.242676 
	C794.987183,1054.242676 781.220154,1054.242676 767.418091,1054.242676 
	C767.418091,1105.178589 767.418091,1155.869629 767.418091,1206.449219 
	C783.168213,1206.449219 798.550171,1206.449219 813.849426,1206.449219 
	C813.995178,1205.734985 814.119751,1205.409180 814.119995,1205.083496 
	C814.138062,1180.591187 814.146362,1156.098999 814.155823,1130.637329 
M1100.249634,1629.065430 
	C1101.520386,1625.299561 1102.456787,1621.378174 1104.123779,1617.796875 
	C1109.347534,1606.574585 1120.657959,1600.161621 1133.429199,1601.127808 
	C1143.799561,1601.912354 1154.341675,1607.807861 1157.307739,1620.982544 
	C1157.476562,1621.732422 1157.993164,1622.403931 1158.173218,1622.763306 
	C1174.619873,1622.763306 1190.641357,1622.763306 1206.723022,1622.763306 
	C1202.901001,1598.829224 1191.802734,1580.254517 1170.369385,1568.696167 
	C1154.536011,1560.157471 1137.456177,1558.362305 1119.953979,1560.242554 
	C1099.383911,1562.452515 1082.173462,1571.494995 1069.019165,1587.609131 
	C1057.208618,1602.077271 1051.925171,1618.945312 1051.634644,1637.489502 
	C1051.262329,1661.261719 1058.136108,1682.585205 1076.202393,1698.439453 
	C1102.171997,1721.229736 1132.499023,1724.837402 1163.932983,1712.429443 
	C1189.115356,1702.489380 1202.493042,1682.061401 1206.818848,1655.464233 
	C1206.028320,1655.336304 1205.539551,1655.188843 1205.050537,1655.188232 
	C1190.723267,1655.170288 1176.394653,1655.269775 1162.069702,1655.083374 
	C1158.787354,1655.040649 1157.527588,1656.076660 1156.691650,1659.251587 
	C1155.124268,1665.204712 1151.727295,1670.035034 1146.241211,1673.283325 
	C1131.072754,1682.264038 1110.900513,1675.804932 1103.572021,1659.743530 
	C1099.178101,1650.113892 1099.091675,1640.108032 1100.249634,1629.065430 
M692.018127,1144.500000 
	C692.018127,1165.225098 692.018127,1185.950317 692.018127,1206.577393 
	C708.103088,1206.577393 723.366516,1206.577393 738.750732,1206.577393 
	C738.750732,1155.630493 738.750732,1104.943604 738.750732,1054.310547 
	C723.047241,1054.310547 707.652588,1054.310547 692.018127,1054.310547 
	C692.018127,1084.246948 692.018127,1113.873535 692.018127,1144.500000 
M690.813354,1003.432678 
	C686.968140,1009.635681 686.683228,1016.352234 688.520325,1023.121033 
	C693.446777,1041.273071 716.793518,1048.530273 732.864746,1037.028320 
	C747.131042,1026.818115 747.368530,1006.150452 733.340088,995.651794 
	C720.127197,985.763367 700.697449,989.033264 690.813354,1003.432678 
z"/>
<path fill="#FFFFFF" opacity="1.000000" stroke="none" 
	d="
M1255.438477,486.572571 
	C1309.724487,534.626953 1363.751221,582.439575 1417.771973,630.259033 
	C1492.128418,696.079895 1566.484253,761.901550 1640.833130,827.731201 
	C1698.091431,878.428650 1755.338867,929.138489 1812.588257,979.846313 
	C1813.316040,980.490906 1814.002563,981.182373 1814.983032,982.112732 
	C1786.822021,1013.921265 1758.809692,1045.561890 1730.528564,1077.506104 
	C1489.665161,864.325439 1249.026733,651.343933 1007.981262,438.002075 
	C767.129761,651.110962 526.355408,864.151672 285.239960,1077.494141 
	C257.051819,1045.707397 229.009933,1014.085693 200.629700,982.082397 
	C468.624084,744.820129 736.416260,507.736847 1004.422546,270.464020 
	C1005.650879,271.509125 1006.728821,272.426270 1007.978760,273.489746 
	C1009.097229,272.519775 1010.166199,271.592712 1011.428040,270.498444 
	C1092.787354,342.540802 1173.981934,414.437378 1255.438477,486.572571 
z"/>
<path fill="#FEFEFE" opacity="1.000000" stroke="none" 
	d="
M451.234589,666.232178 
	C447.901062,669.210083 444.828857,671.949829 441.285095,675.110046 
	C441.285095,573.995361 441.285095,473.490753 441.285095,372.740234 
	C508.959412,372.740234 576.551636,372.740234 644.550049,372.740234 
	C644.644592,374.256226 644.829102,375.675507 644.807312,377.091614 
	C644.231018,414.578339 643.682495,452.065765 642.909851,489.548523 
	C642.866516,491.649506 641.437683,494.255127 639.827515,495.713623 
	C578.460388,551.300110 516.996338,606.779541 455.546814,662.275024 
	C454.186432,663.503540 452.845734,664.753784 451.234589,666.232178 
z"/>
<path fill="#044063" opacity="1.000000" stroke="none" 
	d="
M710.968445,1347.252808 
	C710.968445,1344.865479 710.968445,1342.938354 710.968445,1341.011353 
	C710.708496,1340.936523 710.448608,1340.861572 710.188660,1340.786743 
	C709.444763,1342.161865 708.670105,1343.521362 707.961548,1344.914429 
	C693.872864,1372.611206 679.719360,1400.275513 665.799561,1428.056763 
	C664.030701,1431.587158 662.005676,1432.735718 658.159058,1432.599487 
	C649.505249,1432.292969 640.828430,1432.340454 632.170837,1432.588013 
	C628.987427,1432.678833 627.503296,1431.469971 626.142883,1428.771729 
	C612.153503,1401.026855 598.041504,1373.343994 583.957458,1345.646973 
	C583.228149,1344.212891 582.442505,1342.807495 580.894043,1341.493042 
	C580.894043,1381.118530 580.894043,1420.744141 580.894043,1460.683350 
	C564.918152,1460.683350 549.524353,1460.683350 533.844299,1460.683350 
	C533.844299,1390.596680 533.844299,1320.547852 533.844299,1249.999634 
	C538.183655,1249.999634 542.476990,1249.999756 546.770325,1249.999756 
	C557.767822,1249.999756 568.772034,1250.220459 579.759399,1249.887573 
	C583.976501,1249.760010 586.118042,1250.975220 588.042175,1254.855469 
	C606.347656,1291.770874 624.897156,1328.565063 643.388000,1365.388428 
	C644.184692,1366.974854 645.094177,1368.504395 646.288391,1370.672974 
	C655.056396,1352.976196 663.506836,1335.924683 671.953491,1318.871338 
	C682.646790,1297.282227 693.424133,1275.733521 703.934692,1254.055664 
	C705.498535,1250.830444 707.281494,1249.879883 710.713440,1249.919922 
	C726.329956,1250.101807 741.949707,1249.999634 757.782898,1249.999634 
	C757.782898,1320.467529 757.782898,1390.521973 757.782898,1460.776367 
	C742.174988,1460.776367 726.775146,1460.776367 710.968445,1460.776367 
	C710.968445,1422.940308 710.968445,1385.326660 710.968445,1347.252808 
z"/>
<path fill="#044064" opacity="1.000000" stroke="none" 
	d="
M954.643311,1077.661377 
	C974.334351,1051.037720 1021.018372,1040.041748 1054.252930,1064.450684 
	C1054.252930,1051.742432 1054.252808,1039.515869 1054.252808,1027.289307 
	C1054.252808,1015.005798 1054.252930,1002.722351 1054.252930,990.245605 
	C1070.164307,990.245605 1085.571655,990.245605 1101.140625,990.245605 
	C1101.140625,1062.408936 1101.140625,1134.325073 1101.140625,1206.539917 
	C1087.187988,1206.539917 1073.432983,1206.539917 1059.294189,1206.539917 
	C1058.407593,1202.244873 1057.511230,1197.902466 1056.547363,1193.232788 
	C1051.882690,1196.525879 1047.622925,1200.299194 1042.727661,1202.855835 
	C1021.967834,1213.697632 1000.526550,1212.496948 980.226807,1202.768311 
	C949.652649,1188.115845 937.137573,1161.741821 936.995239,1128.831909 
	C936.913452,1109.937622 942.571045,1092.833496 954.643311,1077.661377 
M986.881104,1115.597046 
	C986.221436,1121.984131 984.797119,1128.401855 985.051025,1134.752441 
	C985.712585,1151.295532 998.782166,1165.638794 1013.635437,1167.042603 
	C1034.546387,1169.018921 1049.164185,1159.677124 1053.521484,1140.929810 
	C1056.880737,1126.477051 1054.515991,1113.131836 1043.547485,1102.267944 
	C1029.017456,1087.876709 996.687439,1090.042603 986.881104,1115.597046 
z"/>
<path fill="#044064" opacity="1.000000" stroke="none" 
	d="
M856.138550,1684.108643 
	C836.414124,1717.562988 786.637756,1731.487061 751.054321,1705.186523 
	C751.054321,1729.490234 751.054321,1753.567871 751.054321,1778.073853 
	C735.234375,1778.073853 719.719421,1778.073853 704.018311,1778.073853 
	C704.018311,1706.529053 704.018311,1635.080933 704.018311,1563.232666 
	C717.821899,1563.232666 731.696960,1563.232666 745.872192,1563.232666 
	C746.778381,1567.433105 747.707458,1571.739868 748.737061,1576.512695 
	C749.943176,1575.716553 750.807617,1575.295288 751.489929,1574.673950 
	C768.158142,1559.495361 787.970032,1557.204834 808.961304,1561.327026 
	C838.685425,1567.164429 862.126770,1592.215576 866.866150,1622.740601 
	C870.201904,1644.224854 868.047913,1664.860352 856.138550,1684.108643 
M754.542175,1657.878296 
	C764.009338,1676.961304 791.241089,1682.595337 807.554504,1668.922241 
	C818.907349,1659.406860 821.743713,1646.990601 820.055420,1633.004272 
	C818.451965,1619.720337 811.720703,1609.640625 799.322266,1604.759521 
	C786.903442,1599.870605 774.320251,1600.802002 763.467224,1609.416382 
	C750.169250,1619.971680 746.480225,1640.109497 754.542175,1657.878296 
z"/>
<path fill="#044064" opacity="1.000000" stroke="none" 
	d="
M682.221558,1663.167969 
	C677.796631,1689.724121 662.085510,1706.310425 637.606628,1714.342285 
	C614.731079,1721.848145 591.478516,1721.088867 569.150330,1711.972900 
	C544.009399,1701.708496 528.953918,1683.217041 526.828369,1655.399902 
	C526.600159,1652.412598 526.400696,1649.422729 526.233765,1646.431396 
	C526.208069,1645.971069 526.431274,1645.496826 526.599365,1644.769409 
	C542.555908,1644.769409 558.500916,1644.769409 574.796936,1644.769409 
	C575.307556,1648.452026 575.496765,1652.261719 576.398560,1655.894775 
	C580.264648,1671.470825 594.675964,1680.065552 612.507202,1677.396118 
	C616.081482,1676.860962 619.825928,1676.031250 622.980042,1674.367310 
	C637.026306,1666.957275 637.320312,1647.654907 623.373108,1638.716675 
	C618.264160,1635.442505 612.408447,1633.237183 606.719604,1630.983032 
	C592.218262,1625.237305 577.231995,1620.558838 563.164673,1613.917725 
	C548.258789,1606.880615 536.834351,1595.710815 533.034302,1578.771118 
	C525.595886,1545.612915 540.176025,1518.055054 572.277588,1506.474243 
	C598.287842,1497.090942 624.292725,1498.620972 648.398987,1512.547363 
	C669.482727,1524.727905 677.831177,1544.598389 677.846008,1568.789551 
	C661.372864,1568.789551 644.998352,1568.789551 629.338623,1568.789551 
	C627.760315,1563.528076 626.930298,1558.203247 624.641479,1553.604248 
	C617.379211,1539.012573 593.173706,1539.803589 584.825562,1548.405518 
	C577.993652,1555.445190 577.976074,1568.777466 586.239868,1573.953979 
	C594.162781,1578.916626 603.074402,1582.393311 611.760315,1586.023193 
	C623.703979,1591.014404 636.122253,1594.936523 647.843750,1600.379272 
	C674.016174,1612.531982 685.603699,1634.081177 682.221558,1663.167969 
z"/>
<path fill="#044064" opacity="1.000000" stroke="none" 
	d="
M912.379272,1574.342163 
	C938.697876,1556.876953 966.676941,1555.077393 995.151733,1565.829956 
	C1018.057861,1574.479736 1030.300293,1592.606689 1030.980469,1616.963623 
	C1031.878174,1649.100830 1031.368408,1681.277588 1031.448608,1713.437256 
	C1031.449829,1713.908936 1031.256836,1714.381104 1031.013306,1715.504395 
	C1023.161682,1715.504395 1015.224609,1715.504395 1007.287537,1715.504395 
	C1006.954224,1715.504395 1006.620972,1715.506592 1006.287659,1715.504150 
	C1001.457275,1715.469604 995.478088,1717.137695 992.141357,1714.887695 
	C989.200439,1712.904297 989.211182,1706.544189 987.820618,1701.781250 
	C987.343506,1702.072632 986.609375,1702.347656 986.106689,1702.853027 
	C971.987000,1717.049927 954.456848,1720.227173 935.459717,1718.408447 
	C922.074280,1717.126953 909.654846,1713.260864 899.862122,1703.442993 
	C876.921021,1680.443726 884.190491,1641.550049 913.841553,1628.246216 
	C924.813049,1623.323608 936.425354,1621.396606 948.312378,1621.148071 
	C960.116272,1620.901001 971.929382,1621.093872 983.705017,1621.093872 
	C984.472473,1610.111450 977.954895,1602.430786 966.341980,1600.160034 
	C950.785889,1597.118042 940.318726,1603.693726 934.740845,1620.229004 
	C919.924561,1620.229004 905.012939,1620.229004 889.655640,1620.229004 
	C889.873474,1601.308472 897.567505,1586.287964 912.379272,1574.342163 
M952.609375,1679.987915 
	C968.597351,1679.417358 979.292908,1670.183716 981.613831,1655.157715 
	C970.575928,1655.157715 959.499634,1654.996338 948.434753,1655.280640 
	C945.935120,1655.344849 943.297363,1656.645508 941.036499,1657.928833 
	C937.112976,1660.156128 935.312683,1663.782349 935.592041,1668.351196 
	C935.862854,1672.780518 938.188293,1675.967407 942.141235,1677.557739 
	C945.164795,1678.774048 948.511047,1679.188477 952.609375,1679.987915 
z"/>
<path fill="#044064" opacity="1.000000" stroke="none" 
	d="
M1259.447144,1707.615356 
	C1233.859375,1691.365601 1223.419922,1667.627075 1223.663330,1638.494263 
	C1223.820801,1619.660034 1228.984497,1602.417725 1240.879639,1587.494751 
	C1253.819336,1571.261353 1270.919556,1562.540283 1291.289429,1560.246582 
	C1309.921021,1558.148560 1327.923828,1560.503052 1344.139893,1570.641968 
	C1367.584473,1585.301147 1378.226318,1607.184082 1378.854614,1634.324829 
	C1378.996094,1640.437866 1378.356812,1646.568970 1378.057983,1653.103760 
	C1342.243652,1653.103760 1306.829346,1653.103760 1271.358276,1653.103760 
	C1273.140137,1666.097656 1282.718384,1675.467407 1296.274292,1677.854126 
	C1309.564819,1680.194336 1321.036255,1675.269165 1326.770752,1664.128662 
	C1328.447144,1660.871826 1330.307495,1660.053223 1333.660034,1660.094849 
	C1347.323853,1660.265137 1360.990845,1660.180420 1374.656738,1660.201660 
	C1374.979858,1660.202148 1375.302612,1660.341919 1376.078003,1660.521729 
	C1373.843994,1670.672729 1369.965088,1680.099609 1363.772583,1688.421143 
	C1344.650269,1714.117798 1318.369141,1722.134033 1287.876465,1717.367310 
	C1278.238159,1715.860840 1269.108887,1711.099121 1259.447144,1707.615356 
M1273.424438,1617.412598 
	C1273.824707,1618.272339 1274.123901,1619.794678 1274.643188,1619.873901 
	C1276.593140,1620.171265 1278.614868,1620.000244 1280.609619,1620.000366 
	C1297.019775,1620.001099 1313.430054,1620.000732 1329.901611,1620.000732 
	C1328.219482,1609.527710 1319.233398,1601.667969 1307.574463,1600.126099 
	C1292.957520,1598.192993 1279.504517,1604.804199 1273.424438,1617.412598 
z"/>
<path fill="#044064" opacity="1.000000" stroke="none" 
	d="
M533.553833,1056.999512 
	C533.553894,1036.524658 533.553894,1016.549927 533.553894,996.203735 
	C580.222473,996.203735 626.587585,996.203735 673.196167,996.203735 
	C673.196167,1009.119507 673.196167,1022.036194 673.196167,1035.448120 
	C642.387756,1035.448120 611.823486,1035.448120 580.966919,1035.448120 
	C580.966919,1050.857300 580.966919,1065.775024 580.966919,1081.293701 
	C605.648926,1081.293701 630.357422,1081.293701 655.419556,1081.293701 
	C655.419556,1094.606934 655.419556,1107.329102 655.419556,1120.595703 
	C630.778931,1120.595703 606.062378,1120.595703 580.763306,1120.595703 
	C580.763306,1149.499146 580.763306,1177.869629 580.763306,1206.536621 
	C564.926270,1206.536621 549.671936,1206.536621 533.553833,1206.536621 
	C533.553833,1156.924194 533.553833,1107.211914 533.553833,1056.999512 
z"/>
<path fill="#044064" opacity="1.000000" stroke="none" 
	d="
M823.918457,1472.913330 
	C827.072510,1465.912476 830.096985,1459.266602 832.742737,1453.452881 
	C830.952759,1451.491821 829.006531,1450.204224 828.257263,1448.415039 
	C809.196533,1402.904663 790.260254,1357.342285 771.313110,1311.784424 
	C770.994751,1311.019043 770.809814,1310.198120 770.280090,1308.494995 
	C772.130066,1308.494995 773.680420,1308.494995 775.230774,1308.494995 
	C789.062927,1308.494873 802.897705,1308.642700 816.725281,1308.391235 
	C820.209778,1308.327881 821.668884,1309.564087 822.867126,1312.598755 
	C833.727539,1340.103027 844.717590,1367.556274 855.677246,1395.021362 
	C856.202393,1396.337402 856.798584,1397.625000 857.681213,1399.664062 
	C864.010254,1384.414551 870.052185,1369.859375 876.092102,1355.303223 
	C882.077087,1340.879761 888.012817,1326.435303 894.118591,1312.063232 
	C894.718140,1310.651978 896.341553,1308.675659 897.514160,1308.658813 
	C913.303467,1308.432129 929.097168,1308.506836 945.703613,1308.506836 
	C944.735535,1310.886353 944.063538,1312.659424 943.301514,1314.393066 
	C913.220276,1382.836792 883.099976,1451.263428 853.132996,1519.757080 
	C851.614929,1523.226807 849.859070,1524.329712 846.148987,1524.262695 
	C832.821167,1524.021973 819.486328,1524.168213 806.154175,1524.168213 
	C804.547485,1524.168213 802.940735,1524.168213 800.602905,1524.168213 
	C808.531494,1506.762695 816.160217,1490.015503 823.918457,1472.913330 
z"/>
<path fill="#044064" opacity="1.000000" stroke="none" 
	d="
M814.155640,1131.122070 
	C814.146362,1156.098999 814.138062,1180.591187 814.119995,1205.083496 
	C814.119751,1205.409180 813.995178,1205.734985 813.849426,1206.449219 
	C798.550171,1206.449219 783.168213,1206.449219 767.418091,1206.449219 
	C767.418091,1155.869629 767.418091,1105.178589 767.418091,1054.242676 
	C781.220154,1054.242676 794.987183,1054.242676 809.208435,1054.242676 
	C809.840393,1058.895996 810.482666,1063.624878 811.068848,1067.941162 
	C817.388855,1063.991089 823.476440,1059.330688 830.245789,1056.097656 
	C867.302917,1038.399902 908.798889,1060.391113 915.053406,1100.800537 
	C915.689148,1104.908081 916.551636,1109.046021 916.568665,1113.172974 
	C916.696472,1144.146484 916.638367,1175.120728 916.638367,1206.466797 
	C901.262024,1206.466797 885.878967,1206.466797 869.849426,1206.466797 
	C869.849426,1204.713379 869.849426,1202.947876 869.849426,1201.182373 
	C869.849060,1176.689941 869.922058,1152.197266 869.788696,1127.705566 
	C869.760681,1122.566406 869.468201,1117.331055 868.448425,1112.312500 
	C864.440247,1092.587891 841.778137,1085.119995 826.219788,1098.149658 
	C815.982849,1106.723022 814.286438,1118.364746 814.155640,1131.122070 
z"/>
<path fill="#044064" opacity="1.000000" stroke="none" 
	d="
M1100.164795,1629.489990 
	C1099.091675,1640.108032 1099.178101,1650.113892 1103.572021,1659.743530 
	C1110.900513,1675.804932 1131.072754,1682.264038 1146.241211,1673.283325 
	C1151.727295,1670.035034 1155.124268,1665.204712 1156.691650,1659.251587 
	C1157.527588,1656.076660 1158.787354,1655.040649 1162.069702,1655.083374 
	C1176.394653,1655.269775 1190.723267,1655.170288 1205.050537,1655.188232 
	C1205.539551,1655.188843 1206.028320,1655.336304 1206.818848,1655.464233 
	C1202.493042,1682.061401 1189.115356,1702.489380 1163.932983,1712.429443 
	C1132.499023,1724.837402 1102.171997,1721.229736 1076.202393,1698.439453 
	C1058.136108,1682.585205 1051.262329,1661.261719 1051.634644,1637.489502 
	C1051.925171,1618.945312 1057.208618,1602.077271 1069.019165,1587.609131 
	C1082.173462,1571.494995 1099.383911,1562.452515 1119.953979,1560.242554 
	C1137.456177,1558.362305 1154.536011,1560.157471 1170.369385,1568.696167 
	C1191.802734,1580.254517 1202.901001,1598.829224 1206.723022,1622.763306 
	C1190.641357,1622.763306 1174.619873,1622.763306 1158.173218,1622.763306 
	C1157.993164,1622.403931 1157.476562,1621.732422 1157.307739,1620.982544 
	C1154.341675,1607.807861 1143.799561,1601.912354 1133.429199,1601.127808 
	C1120.657959,1600.161621 1109.347534,1606.574585 1104.123779,1617.796875 
	C1102.456787,1621.378174 1101.520386,1625.299561 1100.164795,1629.489990 
z"/>
<path fill="#043F63" opacity="1.000000" stroke="none" 
	d="
M692.018127,1144.000000 
	C692.018127,1113.873535 692.018127,1084.246948 692.018127,1054.310547 
	C707.652588,1054.310547 723.047241,1054.310547 738.750732,1054.310547 
	C738.750732,1104.943604 738.750732,1155.630493 738.750732,1206.577393 
	C723.366516,1206.577393 708.103088,1206.577393 692.018127,1206.577393 
	C692.018127,1185.950317 692.018127,1165.225098 692.018127,1144.000000 
z"/>
<path fill="#054164" opacity="1.000000" stroke="none" 
	d="
M690.965210,1003.095215 
	C700.697449,989.033264 720.127197,985.763367 733.340088,995.651794 
	C747.368530,1006.150452 747.131042,1026.818115 732.864746,1037.028320 
	C716.793518,1048.530273 693.446777,1041.273071 688.520325,1023.121033 
	C686.683228,1016.352234 686.968140,1009.635681 690.965210,1003.095215 
z"/>
<path fill="#FDFEFE" opacity="1.000000" stroke="none" 
	d="
M986.971985,1115.214600 
	C996.687439,1090.042603 1029.017456,1087.876709 1043.547485,1102.267944 
	C1054.515991,1113.131836 1056.880737,1126.477051 1053.521484,1140.929810 
	C1049.164185,1159.677124 1034.546387,1169.018921 1013.635437,1167.042603 
	C998.782166,1165.638794 985.712585,1151.295532 985.051025,1134.752441 
	C984.797119,1128.401855 986.221436,1121.984131 986.971985,1115.214600 
z"/>
<path fill="#FDFEFE" opacity="1.000000" stroke="none" 
	d="
M754.355591,1657.550537 
	C746.480225,1640.109497 750.169250,1619.971680 763.467224,1609.416382 
	C774.320251,1600.802002 786.903442,1599.870605 799.322266,1604.759521 
	C811.720703,1609.640625 818.451965,1619.720337 820.055420,1633.004272 
	C821.743713,1646.990601 818.907349,1659.406860 807.554504,1668.922241 
	C791.241089,1682.595337 764.009338,1676.961304 754.355591,1657.550537 
z"/>
<path fill="#F9FBFB" opacity="1.000000" stroke="none" 
	d="
M952.161560,1679.973755 
	C948.511047,1679.188477 945.164795,1678.774048 942.141235,1677.557739 
	C938.188293,1675.967407 935.862854,1672.780518 935.592041,1668.351196 
	C935.312683,1663.782349 937.112976,1660.156128 941.036499,1657.928833 
	C943.297363,1656.645508 945.935120,1655.344849 948.434753,1655.280640 
	C959.499634,1654.996338 970.575928,1655.157715 981.613831,1655.157715 
	C979.292908,1670.183716 968.597351,1679.417358 952.161560,1679.973755 
z"/>
<path fill="#FDFEFE" opacity="1.000000" stroke="none" 
	d="
M1273.626099,1617.061279 
	C1279.504517,1604.804199 1292.957520,1598.192993 1307.574463,1600.126099 
	C1319.233398,1601.667969 1328.219482,1609.527710 1329.901611,1620.000732 
	C1313.430054,1620.000732 1297.019775,1620.001099 1280.609619,1620.000366 
	C1278.614868,1620.000244 1276.593140,1620.171265 1274.643188,1619.873901 
	C1274.123901,1619.794678 1273.824707,1618.272339 1273.626099,1617.061279 
z"/>
</svg>